<svg xmlns="http://www.w3.org/2000/svg" xmlns:xlink="http://www.w3.org/1999/xlink" width="1200" zoomAndPan="magnify" viewBox="0 0 900 675.000002" height="900" preserveAspectRatio="xMidYMid meet" version="1.0"><path fill="#ffffff" d="M 714.34375 362.621094 C 730.347656 268.242188 691.554688 168.882812 607.015625 111.894531 C 522.476562 54.902344 415.816406 56.207031 334.335938 106.433594 C 188.710938 36.765625 71.632812 15.164062 40.988281 60.628906 C 2.890625 117.132812 110.875 258.570312 289.605469 395.597656 C 289.882812 395.808594 290.152344 396.015625 290.433594 396.226562 C 296.335938 400.746094 302.332031 405.261719 308.390625 409.773438 C 309.214844 410.390625 310.042969 411.015625 310.878906 411.644531 C 316.316406 415.667969 321.835938 419.691406 327.394531 423.707031 C 328.867188 424.769531 330.3125 425.847656 331.792969 426.914062 C 337.054688 430.6875 342.390625 434.441406 347.75 438.195312 C 349.511719 439.433594 351.238281 440.675781 353.007812 441.910156 C 360.109375 446.863281 367.300781 451.78125 374.574219 456.683594 C 381.863281 461.59375 389.144531 466.421875 396.40625 471.164062 C 397.839844 472.101562 399.253906 472.988281 400.675781 473.914062 C 406.574219 477.738281 412.460938 481.53125 418.335938 485.246094 C 419.511719 485.984375 420.667969 486.703125 421.839844 487.429688 C 427.996094 491.304688 434.140625 495.117188 440.265625 498.863281 C 441.042969 499.332031 441.8125 499.789062 442.589844 500.257812 C 449.132812 504.242188 455.664062 508.164062 462.167969 512.007812 C 462.476562 512.1875 462.785156 512.359375 463.085938 512.539062 C 657.132812 626.835938 828.742188 673.875 866.835938 617.375 C 897.484375 571.90625 833.542969 471.484375 714.34375 362.621094 Z M 176.640625 135.558594 C 188.492188 117.96875 229.714844 122.570312 287.074219 144.171875 C 276.488281 154.980469 266.675781 166.832031 257.914062 179.839844 C 245.484375 198.285156 235.910156 217.785156 228.929688 237.84375 C 185.367188 191.324219 164.507812 153.554688 176.640625 135.558594 Z M 746.484375 519.738281 C 734.351562 537.734375 691.515625 532.546875 632.0625 509.628906 C 648.039062 495.636719 662.53125 479.441406 674.960938 460.996094 C 683.726562 447.996094 691.035156 434.460938 697.082031 420.578125 C 738.613281 465.65625 758.34375 502.148438 746.484375 519.738281 Z M 746.484375 519.738281 " fill-opacity="1" fill-rule="nonzero"/><path fill="#ffffff" d="M 217.527344 356.40625 C 227.335938 424.152344 264.617188 487.667969 325.847656 528.941406 C 387.082031 570.222656 459.9375 580.960938 526.417969 564.648438 C 474.988281 537.964844 420.835938 505.894531 366.207031 469.0625 C 311.585938 432.25 261.546875 394.074219 217.527344 356.40625 Z M 217.527344 356.40625 " fill-opacity="1" fill-rule="nonzero"/></svg>